<?xml version="1.0" encoding="utf-8"?>
<?xml-stylesheet type="text/xsl" href="rss1.xsl"?>
<rss version="2.0" xmlns:atom="http://www.w3.org/2005/Atom" xmlns:content="http://purl.org/rss/1.0/modules/content/" xmlns:dc="http://purl.org/dc/elements/1.1/" xmlns:media="http://search.yahoo.com/mrss/">
<channel>
 <title>Getty</title>
 <link>http://www.gettyimg.com/</link>
 <atom:link href="http://www.gettyimg.com/" rel="self" type="application/rss+xml" />

 
                <item>
                <title><![CDATA[【Requests】[REQ AUD] - Michael Jackson &amp; Jay-Z - You Rock My World (Track Masters Remix) FLAC]]></title>
                <link><![CDATA[https://sharemania.us/threads/michael-jackson-jay-z-you-rock-my-world-track-masters-remix-flac.249323/]]></link>
                <description><![CDATA[<article>
<blockquote class="messageText SelectQuoteContainer ugc baseHtml">
Hey, some one can upload, please?<br>
<br>
<b>Michael Jackson &amp; Jay-Z - You Rock My World (Track Masters Remix) 3:28</b><br>
<br>
<a href="https://www.discogs.com/release/3409195-Michael-Jackson-You-Rock-My-World-Remix" target="_blank" class="externalLink" rel="nofollow">https://www.discogs.com/release/3409195-Michael-Jackson-You-Rock-My-World-Remix</a><br>
<a href="https://www.discogs.com/release/2712542-Michael-Jackson-You-Rock-My-World-Jay-Z-Remix" target="_blank" class="externalLink" rel="nofollow">https://www.discogs.com/release/2712542-Michael-Jackson-You-Rock-My-World-Jay-Z-Remix</a>
<div class="messageTextEndMarker">&nbsp;</div>
</blockquote>
</article>]]></description>
                <author><![CDATA[freefresh]]></author>
                </item>

                
                <item>
                <title><![CDATA[【Requests】[REQ AUD] - Cherri Bomb - Stark (EP) [LOSSLESS/FLAC]]]></title>
                <link><![CDATA[https://sharemania.us/threads/cherri-bomb-stark-ep-lossless-flac.249325/]]></link>
                <description><![CDATA[<article>
<blockquote class="messageText SelectQuoteContainer ugc baseHtml">
<img src="https://i.discogs.com/vFQDoXD6athGztx_ubdwyXjOyhz-zsGmOvk-2ku0F9o/rs:fit/g:sm/q:90/h:600/w:600/czM6Ly9kaXNjb2dz/LWRhdGFiYXNlLWlt/YWdlcy9SLTU0NTcx/NDEtMTM5Mzg0ODU2/Ni04ODk3LmpwZWc.jpeg" class="bbCodeImage LbImage" alt="[​IMG]" data-url="https://i.discogs.com/vFQDoXD6athGztx_ubdwyXjOyhz-zsGmOvk-2ku0F9o/rs:fit/g:sm/q:90/h:600/w:600/czM6Ly9kaXNjb2dz/LWRhdGFiYXNlLWlt/YWdlcy9SLTU0NTcx/NDEtMTM5Mzg0ODU2/Ni04ODk3LmpwZWc.jpeg" style="">
<div class="messageTextEndMarker">&nbsp;</div>
</blockquote>
</article>]]></description>
                <author><![CDATA[Benjo4Ever]]></author>
                </item>

                
                <item>
                <title><![CDATA[【Apple Music】WEB-RiP - Jerome - Only Go Higher (1080p)]]></title>
                <link><![CDATA[https://sharemania.us/threads/jerome-only-go-higher-1080p.249324/]]></link>
                <description><![CDATA[<article>
<blockquote class="messageText SelectQuoteContainer ugc baseHtml">
<img src="https://i.postimg.cc/hjFHf6c2/Jerome-Only-Go-Higher-mp4.jpg" class="bbCodeImage LbImage" alt="[​IMG]" data-url="https://i.postimg.cc/hjFHf6c2/Jerome-Only-Go-Higher-mp4.jpg" style=""><br>
<br>
<div class="bbCodeBlock bbCodeCode">
<div class="type">Code:</div>
<pre>General
Complete name                  : G:\Новая папка\Jerome - Only Go Higher.mp4
Format                         : MPEG-4
Format profile                 : Base Media
Codec ID                       : isom (isom/iso2/avc1/mp41)
File size                      : 187 MiB
Duration                       : 2 min 30 s
Overall bit rate               : 10.5 Mb/s
Frame rate                     : 25.000 FPS
Movie name                     : Only Go Higher
Performer                      : Jerome
Genre                          : Dance
ContentType                    : Music Video
Recorded date                  : 2019-10-16 07:00:00 UTC
Writing application            : Lavf56.30.100
Copyright                      : ℗ 2019 Kontor Records GmbH

Video
ID                             : 1
Format                         : AVC
Format/Info                    : Advanced Video Codec
Format profile                 : High@L4
Format settings                : CABAC / 4 Ref Frames
Format settings, CABAC         : Yes
Format settings, Reference fra : 4 frames
Format settings, Slice count   : 8 slices per frame
Codec ID                       : avc1
Codec ID/Info                  : Advanced Video Coding
Duration                       : 2 min 30 s
Bit rate                       : 10.2 Mb/s
Width                          : 1 920 pixels
Height                         : 1 080 pixels
Display aspect ratio           : 16:9
Frame rate mode                : Constant
Frame rate                     : 25.000 FPS
Color space                    : YUV
Chroma subsampling             : 4:2:0
Bit depth                      : 8 bits
Scan type                      : Progressive
Bits/(Pixel*Frame)             : 0.197
Stream size                    : 183 MiB (98%)
Color range                    : Limited
Color primaries                : BT.709
Transfer characteristics       : BT.709
Matrix coefficients            : BT.709
Codec configuration box        : avcC

Audio
ID                             : 2
Format                         : AAC LC
Format/Info                    : Advanced Audio Codec Low Complexity
Codec ID                       : mp4a-40-2
Duration                       : 2 min 30 s
Duration_LastFrame             : -4 ms
Bit rate mode                  : Constant
Bit rate                       : 240 kb/s
Channel(s)                     : 2 channels
Channel layout                 : L R
Sampling rate                  : 48.0 kHz
Frame rate                     : 46.875 FPS (1024 SPF)
Compression mode               : Lossy
Stream size                    : 4.29 MiB (2%)
Default                        : Yes
Alternate group                : 1

</pre>
</div>
<div class="bbCodeBlock bbCodeVfcHH HiddenContent">
<div class="attribution type">Hidden Content:</div>
<blockquote>You must either reply or click 'Like' to see the hidden information contained here.</blockquote>
</div>
<div class="messageTextEndMarker">&nbsp;</div>
</blockquote>
</article>]]></description>
                <author><![CDATA[vitalya3]]></author>
                </item>

                
                <item>
                <title><![CDATA[【Singles (lossless)】FLAC - Jade - Don't Walk Away (Remixes) (Maxi CD Single) (EU) (1992) [FLAC]]]></title>
                <link><![CDATA[https://sharemania.us/threads/jade-dont-walk-away-remixes-maxi-cd-single-eu-1992-flac.249326/]]></link>
                <description><![CDATA[<article>
<blockquote class="messageText SelectQuoteContainer ugc baseHtml">
<div style="text-align: center"><img src="https://i123.fastpic.org/big/2024/0709/d2/9b9308c6cc97cc2d3d022b909e67b8d2.jpg" class="bbCodeImage LbImage" alt="[​IMG]" data-url="https://i123.fastpic.org/big/2024/0709/d2/9b9308c6cc97cc2d3d022b909e67b8d2.jpg" style=""><br>
<b># 74321 14875 2</b> <i>(Maxi CD Single) (Germany)</i><br>
<b><a href="https://www.discogs.com/release/220508-Jade-Dont-Walk-Away" target="_blank" class="externalLink" rel="nofollow">DISCOGS</a></b><br>
01 <b>Don't Walk Away</b> (Pop Walk) (3:41)<br>
02 <b>Don't Walk Away</b> (Lite Walk) (4:08)<br>
03 <b>Don't Walk Away</b> (Dark Walk) (5:57)<br>
04 <b>Don't Walk Away</b> (Mack Daddy Stroll) (4:24)<br>
05 <b>Don't Walk Away</b> (Album Walk) (4:44)<br>
<div class="bbCodeBlock bbCodeVfcHH HiddenContent">
<div class="attribution type">Hidden Content:</div>
<blockquote>You must reply before you can see the hidden data contained here.</blockquote>
</div></div>
<div class="messageTextEndMarker">&nbsp;</div>
</blockquote>
</article>]]></description>
                <author><![CDATA[Bnik]]></author>
                </item>

                </channel></rss>